<?xml version="1.0" standalone="no"?>
<!DOCTYPE svg PUBLIC "-//W3C//DTD SVG 20010904//EN"
 "http://www.w3.org/TR/2001/REC-SVG-20010904/DTD/svg10.dtd">
<svg version="1.0" xmlns="http://www.w3.org/2000/svg"
 width="1024.000000pt" height="1024.000000pt" viewBox="0 0 1024.000000 1024.000000"
 preserveAspectRatio="xMidYMid meet">

<g transform="translate(0.000000,1024.000000) scale(0.100000,-0.100000)"
fill="#000000" stroke="none">
<path d="M0 5120 l0 -5120 5120 0 5120 0 0 5120 0 5120 -5120 0 -5120 0 0
-5120z m4988 3845 c-3 -3 -9 2 -12 12 -6 14 -5 15 5 6 7 -7 10 -15 7 -18z
m-23 -5 c3 -5 1 -10 -4 -10 -6 0 -11 5 -11 10 0 6 2 10 4 10 3 0 8 -4 11 -10z
m122 -33 c31 1 43 -3 45 -14 2 -13 8 -10 28 10 30 32 37 33 45 6 4 -13 12 -18
22 -15 9 4 23 1 31 -6 10 -8 13 -9 9 -1 -5 7 4 10 28 8 19 -2 38 -6 42 -8 4
-3 9 5 9 18 1 18 -2 22 -15 18 -14 -4 -14 -3 -1 6 22 16 32 13 29 -6 -3 -32 1
-39 22 -40 21 -2 21 -1 3 13 -11 9 -13 13 -6 9 6 -3 12 -1 12 6 0 7 7 4 15 -7
12 -15 16 -16 24 -5 9 14 35 6 26 -9 -3 -5 0 -12 6 -16 8 -4 9 -3 5 4 -11 18
5 14 27 -5 15 -13 21 -15 24 -5 3 6 9 9 14 6 6 -3 5 -11 -2 -20 -6 -8 -9 -17
-5 -21 3 -3 6 0 6 7 0 9 5 7 14 -5 13 -19 14 -18 9 6 -3 17 1 30 14 40 17 13
17 13 4 -4 -13 -17 -13 -18 4 -15 10 1 20 -4 22 -12 4 -13 3 -13 -6 0 -8 11
-11 12 -11 2 0 -7 -5 -10 -11 -6 -8 4 -8 0 0 -15 14 -25 23 -28 14 -5 -5 14
-3 15 17 4 20 -10 22 -10 17 3 -4 11 0 14 16 10 18 -4 19 -3 7 7 -12 9 -10 10
10 4 25 -7 51 -34 45 -45 -2 -3 9 -5 25 -5 16 0 27 2 26 5 -2 3 0 15 5 26 7
18 8 18 9 -5 2 -38 8 -61 16 -68 4 -4 4 1 1 10 -3 10 -2 20 3 23 4 3 10 -1 13
-7 3 -9 7 -7 12 5 7 17 8 17 22 0 8 -10 12 -12 8 -5 -3 6 -1 12 6 12 6 0 9 -8
6 -20 -6 -25 -3 -25 19 -2 17 16 18 16 11 -1 -4 -11 -1 -24 8 -34 8 -8 13 -19
10 -24 -4 -5 -2 -9 3 -9 5 0 9 13 8 29 -1 16 -4 27 -7 25 -3 -2 -6 3 -6 10 0
8 6 12 14 9 7 -3 13 -9 13 -15 0 -5 5 -6 10 -3 6 3 10 -1 10 -9 0 -10 6 -13
15 -10 14 6 20 -7 16 -30 -1 -5 5 -3 14 4 13 11 15 10 9 -4 -3 -9 -10 -16 -15
-16 -4 0 -6 -7 -2 -17 5 -13 8 -12 16 8 l9 24 9 -22 c4 -13 11 -23 14 -23 4 0
3 5 -1 12 -5 8 -2 9 10 5 11 -5 15 -3 10 5 -5 8 -2 9 9 5 10 -4 17 -1 17 5 0
9 3 9 12 0 10 -10 10 -15 0 -21 -11 -7 -11 -9 1 -14 18 -7 29 15 21 41 -4 13
-3 14 4 4 5 -8 13 -13 18 -12 5 1 10 -4 13 -11 2 -7 -1 -9 -8 -5 -6 4 -11 3
-11 -3 0 -5 5 -13 10 -16 6 -4 7 -11 4 -17 -4 -7 -2 -8 4 -4 15 9 16 -6 1 -21
-8 -8 -7 -13 2 -18 7 -5 10 -4 5 3 -3 6 -1 14 6 18 7 5 25 -8 46 -32 19 -21
29 -29 23 -16 -7 13 -8 22 -2 22 6 0 8 8 4 18 -4 13 -3 14 6 6 7 -6 13 -21 14
-32 0 -12 7 -24 14 -26 16 -6 16 -1 3 24 -8 16 -8 18 5 14 8 -4 15 -14 15 -24
0 -13 6 -18 20 -15 23 4 36 -10 16 -18 -8 -3 -16 -1 -19 6 -2 6 -6 2 -9 -10
-4 -15 -2 -20 7 -17 7 3 19 -2 28 -10 8 -8 18 -12 21 -9 4 4 -4 13 -16 20
l-23 14 24 -7 c17 -4 21 -3 16 6 -5 9 -4 11 3 6 7 -4 12 -18 12 -31 0 -12 7
-26 16 -29 8 -3 12 -2 9 4 -3 6 -1 10 4 10 6 0 11 -5 11 -11 0 -5 3 -8 8 -6 4
3 16 -5 27 -16 l20 -20 -20 8 c-31 12 -66 14 -59 4 3 -5 10 -7 15 -4 5 4 9 -1
9 -9 0 -15 37 -32 47 -22 4 3 -1 6 -10 6 -9 0 -19 4 -22 10 -4 6 2 7 17 1 13
-5 22 -16 22 -25 -1 -9 3 -13 9 -9 6 4 8 0 5 -8 -4 -10 1 -15 13 -15 18 0 24
9 19 31 -1 6 4 5 10 -2 7 -6 9 -17 4 -25 -10 -16 -15 -42 -7 -34 11 11 42 -25
36 -42 -4 -14 -3 -14 5 -3 9 12 13 12 26 2 17 -15 22 -36 6 -26 -6 3 -7 -1 -3
-10 3 -10 8 -12 12 -7 4 7 13 5 24 -3 12 -8 14 -15 8 -20 -6 -3 -11 -12 -11
-18 0 -7 4 -6 10 3 9 15 13 16 46 19 9 1 12 6 8 14 -4 7 -3 9 2 4 5 -5 9 -12
9 -15 0 -14 17 -32 25 -27 4 3 7 -5 6 -18 -2 -15 2 -24 11 -24 8 0 12 6 9 14
-3 8 -2 12 2 9 11 -7 8 -98 -3 -116 -8 -13 -6 -13 8 -2 9 8 25 11 38 7 16 -5
19 -4 14 5 -5 9 -4 11 4 6 6 -4 8 -12 5 -18 -5 -8 -1 -9 12 -5 18 7 18 7 0 -7
-10 -8 -16 -20 -14 -27 3 -8 9 -7 20 5 12 12 22 14 40 7 23 -10 23 -10 -4 -10
-16 -1 -28 -5 -28 -11 0 -13 38 -32 50 -25 6 4 13 -1 16 -10 4 -9 10 -12 13
-7 4 6 11 4 19 -4 7 -8 9 -14 4 -14 -6 0 -12 -9 -15 -20 -3 -12 -1 -18 5 -14
6 4 9 1 7 -5 -6 -18 -24 -13 -25 7 -1 38 -14 58 -38 57 -13 0 -28 -4 -32 -8
-5 -4 0 -5 11 -1 14 6 17 4 12 -9 -3 -9 -2 -19 4 -22 5 -4 9 -3 8 2 -3 19 2
23 15 11 8 -7 10 -15 5 -18 -4 -3 1 -19 11 -35 12 -19 20 -24 21 -15 1 8 4 2
8 -15 3 -16 12 -30 20 -30 8 0 15 -8 17 -18 1 -11 -3 -16 -13 -15 -9 2 -17 -5
-18 -14 -2 -11 2 -15 13 -11 10 4 13 2 8 -5 -5 -8 -2 -10 9 -5 13 5 14 7 3 14
-11 7 -11 9 1 9 7 0 11 6 7 15 -3 8 -1 15 4 15 9 0 14 -14 11 -32 0 -5 6 -8
14 -8 8 0 15 4 15 8 0 18 26 8 27 -10 1 -10 -2 -16 -8 -13 -5 4 -9 0 -10 -7 0
-10 -2 -10 -6 0 -2 6 -12 12 -20 12 -13 0 -13 -3 -3 -15 11 -13 10 -14 -3 -10
-8 4 -18 1 -23 -6 -4 -8 -3 -10 4 -5 7 4 12 2 12 -5 0 -8 4 -8 15 1 22 18 50
-17 32 -39 -7 -8 -7 -13 -2 -10 6 3 21 -5 35 -18 20 -20 21 -23 5 -17 -18 7
-19 6 -6 -10 13 -16 16 -16 26 -3 10 14 13 13 23 -4 7 -10 8 -19 3 -19 -5 0
-12 6 -14 13 -3 6 -5 0 -4 -16 1 -19 6 -26 16 -22 12 5 12 3 0 -11 -13 -16
-12 -16 19 0 32 17 32 17 20 -3 -6 -11 -15 -18 -18 -16 -4 2 -7 -2 -7 -10 0
-8 4 -12 8 -10 7 5 23 -23 21 -36 0 -3 9 -5 20 -5 12 1 22 -5 24 -12 1 -7 0
-8 -3 -2 -7 15 -20 12 -20 -5 0 -8 2 -13 5 -10 7 7 42 -15 42 -27 0 -7 -5 -6
-15 2 -9 7 -18 10 -22 6 -3 -3 -2 -6 4 -6 6 0 13 -10 16 -21 4 -14 11 -20 21
-16 11 4 14 0 11 -15 -5 -24 19 -64 43 -72 13 -5 13 -3 -2 9 -21 16 -10 21 13
6 13 -8 13 -12 0 -27 -8 -11 -9 -15 -2 -10 9 5 16 -7 24 -39 8 -32 20 -50 38
-61 17 -10 19 -13 6 -10 -20 6 -20 6 -1 -9 11 -8 21 -22 22 -32 2 -9 9 -20 16
-24 7 -5 9 -9 3 -9 -5 0 -2 -5 8 -11 9 -5 17 -15 17 -21 0 -6 -7 -5 -17 3 -16
12 -16 11 0 -8 16 -19 23 -37 26 -66 1 -5 5 -6 10 -3 5 4 7 -4 3 -16 -3 -14
-1 -19 6 -14 8 5 10 2 6 -9 -4 -8 5 -39 19 -68 14 -28 36 -83 50 -122 13 -38
28 -78 32 -87 5 -14 2 -18 -13 -18 -11 0 -145 34 -298 75 -318 86 -523 133
-738 170 -83 14 -153 30 -157 36 -3 6 -12 49 -18 96 -7 47 -21 106 -31 133
-11 28 -26 112 -35 201 -21 188 -43 281 -92 379 -193 384 -923 578 -1528 405
-115 -33 -310 -129 -398 -196 -177 -134 -245 -279 -281 -601 -9 -76 -24 -159
-35 -185 -10 -26 -24 -87 -31 -135 -7 -48 -16 -91 -20 -97 -3 -6 -94 -27 -201
-46 -230 -42 -438 -90 -764 -178 -132 -35 -248 -64 -259 -64 -17 0 -18 1 -1
13 10 8 17 27 18 48 1 22 4 31 9 23 8 -12 13 11 9 41 -1 6 3 12 9 12 6 0 10 8
8 18 -2 9 2 22 8 27 16 13 27 85 13 85 -5 0 -7 -6 -3 -12 4 -7 3 -9 -1 -5 -15
13 -14 36 0 30 8 -2 24 5 37 18 13 12 17 19 11 15 -9 -5 -13 0 -13 14 0 11 7
23 15 26 8 4 12 10 9 15 -3 5 2 9 12 9 12 0 15 7 12 29 -2 17 -1 28 3 25 4 -2
11 6 15 18 4 13 14 28 23 35 9 6 13 15 8 19 -4 4 -7 2 -7 -4 0 -7 -6 -12 -12
-12 -8 1 -5 8 7 18 11 9 20 24 20 32 0 8 8 14 17 14 10 -1 16 2 13 6 -3 5 -1
19 3 32 10 26 5 51 -9 42 -5 -3 -9 -3 -9 0 0 13 20 15 33 2 12 -13 16 -9 27
27 8 23 18 47 23 52 7 7 7 5 2 -4 -5 -9 -4 -12 3 -7 8 5 8 15 2 32 -6 15 -6
23 -1 19 5 -3 15 10 22 30 8 22 16 30 20 23 5 -7 3 -16 -4 -21 -8 -6 -8 -7 3
-4 10 2 15 16 15 40 0 23 4 33 9 27 16 -16 29 -11 16 5 -7 9 -10 18 -6 22 3 3
6 0 6 -7 0 -11 3 -11 12 -2 13 13 19 52 7 52 -4 0 -6 8 -4 18 2 9 4 24 4 32 1
13 2 13 11 0 5 -9 5 -17 -1 -21 -6 -3 -4 -11 5 -18 8 -7 12 -20 10 -29 -5 -15
-4 -14 6 1 16 25 21 57 8 54 -6 -1 -13 4 -16 12 -2 8 0 11 6 7 15 -9 22 19 9
35 -10 11 -9 11 5 0 9 -7 16 -18 14 -24 -1 -7 -1 -9 1 -4 3 4 12 7 21 8 11 0
12 2 4 6 -6 2 -9 10 -6 15 5 7 2 8 -6 3 -10 -6 -12 -4 -7 9 6 14 3 17 -8 12
-13 -4 -14 -2 -5 14 6 11 13 20 16 20 3 0 3 -3 1 -7 -3 -5 1 -14 8 -20 11 -10
13 -6 8 24 -5 26 -3 34 6 29 6 -4 9 -12 6 -17 -4 -5 -1 -17 5 -26 9 -15 10
-14 4 6 -5 19 -3 23 9 18 11 -4 14 -2 10 8 -3 8 -9 13 -13 10 -4 -3 -10 2 -13
10 -4 9 -1 12 8 9 9 -4 16 3 21 20 3 14 10 26 16 26 5 0 6 -4 3 -10 -3 -5 -3
-10 0 -10 3 0 11 14 17 31 7 20 15 28 25 25 11 -4 13 -1 8 14 -4 12 -2 20 5
20 6 0 9 4 5 9 -3 5 0 13 6 17 8 4 9 3 5 -4 -4 -7 -2 -12 3 -12 6 0 11 5 11
11 0 6 7 9 14 6 11 -4 13 -1 9 10 -5 11 -3 14 6 8 10 -6 11 -3 1 15 l-12 22
25 -18 c14 -11 22 -23 19 -28 -3 -5 0 -6 7 -1 9 5 7 12 -8 26 -12 11 -21 27
-21 35 0 12 2 12 14 2 8 -7 11 -17 8 -22 -3 -5 0 -6 6 -2 5 3 12 1 14 -6 3 -7
7 -5 11 6 4 9 3 15 -2 12 -5 -3 -12 1 -15 10 -4 12 -1 14 14 9 13 -4 20 -2 21
7 2 23 -3 43 -13 49 -5 3 -2 9 7 13 9 3 24 1 33 -4 14 -9 12 -10 -8 -6 -14 3
-19 3 -12 0 6 -3 10 -9 8 -13 -3 -4 1 -8 9 -8 8 0 16 6 19 13 7 17 -22 46 -36
38 -6 -4 -8 -2 -5 4 4 5 17 8 30 5 18 -4 19 -3 7 6 -18 13 -3 13 25 1 17 -7
17 -9 3 -9 -23 -1 -23 -18 0 -30 15 -8 17 -5 16 17 0 14 -6 28 -12 30 -7 2
-17 13 -23 25 -9 19 -8 20 3 6 8 -9 22 -19 33 -21 11 -2 19 -10 18 -16 -3 -14
-1 -14 21 -6 9 3 16 10 16 16 0 5 -5 6 -12 2 -7 -5 -9 -2 -5 9 4 10 2 14 -6
11 -8 -3 -13 4 -13 16 0 12 4 16 9 11 5 -5 16 -7 23 -4 12 5 19 -8 15 -29 -2
-15 8 -8 20 13 8 15 8 19 0 15 -23 -14 -4 38 19 53 15 10 21 11 16 4 -4 -9 -1
-13 9 -13 9 0 14 -4 11 -9 -3 -5 1 -11 9 -14 12 -5 12 -2 3 19 -10 20 -9 27 2
34 9 5 20 4 28 -2 9 -8 16 -8 25 2 9 10 9 11 0 6 -7 -4 -13 -4 -14 1 0 4 -2
16 -4 25 -2 10 2 16 8 15 6 -1 13 8 15 20 2 14 8 20 17 17 7 -3 15 0 18 8 2 7
3 5 2 -4 -4 -23 8 -23 29 1 10 11 25 17 34 14 14 -4 15 -3 2 5 -8 6 -18 8 -22
6 -4 -3 -8 -1 -8 5 0 6 15 7 37 4 26 -4 34 -3 29 6 -4 6 -12 9 -17 6 -16 -11
-31 5 -19 20 10 12 16 10 36 -12 13 -14 24 -20 24 -14 0 7 4 10 9 6 5 -3 12
-1 16 4 3 6 -4 8 -15 6 -26 -5 -43 31 -26 57 10 17 11 17 17 0 3 -9 1 -20 -5
-24 -6 -4 -8 -10 -4 -13 3 -4 16 3 28 15 18 18 24 20 31 9 9 -14 10 -12 13 14
0 6 6 12 13 12 6 0 15 4 20 8 4 5 3 8 -2 7 -22 -5 -29 1 -15 11 13 9 12 10 -2
5 -10 -3 -18 -1 -18 5 0 6 14 9 35 6 20 -3 35 0 35 5 0 6 6 8 13 5 8 -3 14 1
14 9 0 7 -4 11 -9 8 -9 -6 -2 66 8 75 4 3 4 -4 1 -16 -4 -19 -2 -21 13 -13 10
6 25 7 34 4 9 -3 19 3 26 16 9 16 14 19 25 10 10 -8 16 -7 24 7 8 14 11 15 11
3 1 -10 4 -9 10 5 5 11 9 15 9 8 1 -7 8 -10 16 -7 11 5 14 1 9 -12 -5 -15 -4
-16 4 -4 6 8 9 17 7 20 -1 3 3 11 11 18 14 12 19 8 14 -13 -1 -5 2 -6 6 -2 13
12 13 37 1 37 -7 0 -5 5 3 10 18 12 33 13 27 3 -3 -5 1 -13 8 -20 10 -9 13 -6
13 14 0 32 14 41 58 37 22 -1 32 1 28 8 -4 7 -2 8 4 4 8 -5 12 1 13 16 0 13 3
17 6 11 2 -7 9 -13 15 -13 6 0 8 7 4 15 -4 13 -2 14 14 5 11 -6 20 -15 20 -21
0 -6 5 -7 10 -4 6 3 10 2 10 -3 0 -6 16 6 35 25 20 20 34 42 31 50 -4 8 -1 11
5 7 6 -3 9 -19 7 -35 -3 -15 0 -26 4 -23 5 3 17 0 26 -7 15 -12 15 -12 0 7
-10 11 -18 27 -18 35 0 12 2 11 10 -1 8 -12 10 -10 10 8 0 15 -4 21 -12 16 -7
-5 -8 -3 -4 5 6 9 12 8 26 -6 9 -10 13 -19 9 -21 -5 -2 -9 -8 -9 -13 0 -6 4
-8 9 -4 5 3 12 1 16 -5 3 -5 1 -10 -6 -10 -7 0 -10 -3 -6 -6 11 -11 29 7 18
20 -6 6 -6 18 -2 25 7 10 11 8 16 -10 l8 -23 18 23 c11 13 19 20 19 16 0 -4 7
-2 15 5 12 10 15 10 15 -1 0 -12 2 -12 9 0 7 11 11 10 19 -4 8 -16 10 -15 11
8 4 62 5 64 23 59 17 -4 22 -19 19 -52 -2 -13 -1 -13 8 0 5 8 7 18 5 22 -3 4
-1 8 5 8 5 0 13 9 16 20 4 11 11 18 16 14 6 -3 4 -16 -6 -31 -9 -14 -14 -27
-11 -31 3 -3 6 1 6 9 0 12 2 11 11 -1 9 -13 10 -13 6 2 -3 9 1 22 9 28 11 10
14 10 14 -1 0 -12 2 -12 9 0 5 8 7 20 4 27 -2 6 0 15 5 18 5 3 9 -1 8 -10 -1
-19 40 -29 50 -12 5 7 3 8 -6 3 -9 -6 -11 -4 -5 5 6 10 11 9 22 -5 12 -17 13
-17 13 -2 0 9 5 17 11 17 6 0 9 -6 6 -13 -3 -8 -1 -20 5 -28 8 -11 9 -10 4 4
-3 9 -1 17 4 17 6 0 10 -8 11 -17 0 -15 2 -15 8 2 9 22 4 38 -8 30 -5 -2 -6 8
-3 23 l6 27 6 -25 c5 -22 11 -25 47 -23z m-4 17 c-7 -19 -10 -18 -16 5 -3 13
-1 18 9 14 7 -2 10 -11 7 -19z m77 -5 c-7 -11 -15 -17 -18 -12 -4 4 -11 12
-17 16 -6 5 -3 7 8 3 9 -3 17 -1 17 4 0 6 5 10 10 10 7 0 7 -7 0 -21z m90 0
c0 -10 -27 -19 -34 -12 -11 12 -6 19 14 19 11 0 20 -3 20 -7z m60 -4 c0 -8 -7
-15 -15 -15 -13 0 -14 3 -3 15 16 18 18 18 18 0z m-550 -63 c0 -10 -7 -19 -15
-19 -18 0 -19 4 -2 22 16 19 17 18 17 -3z m-48 -1 c8 12 9 12 6 0 -6 -22 -28
-25 -27 -4 0 12 2 14 6 4 5 -11 7 -11 15 0z m1019 -4 c-1 -4 -1 -14 -1 -22 0
-22 -18 -18 -30 8 -10 20 -10 20 3 4 12 -15 16 -15 20 -3 3 8 2 17 -4 20 -5 2
-5 4 2 3 6 -2 10 -6 10 -10z m-1051 -32 c0 -8 -4 -15 -10 -15 -5 0 -7 7 -4 15
4 8 8 15 10 15 2 0 4 -7 4 -15z m1120 -4 c0 -4 -7 -8 -15 -8 -8 0 -15 6 -15
13 0 8 6 11 15 8 8 -4 15 -9 15 -13z m-1259 -14 c-8 -8 -14 -7 -23 2 -10 11
-10 13 0 7 6 -4 12 -2 12 4 0 6 5 8 11 4 8 -4 8 -9 0 -17z m-40 -30 c-10 -9
-11 -8 -5 6 3 10 9 15 12 12 3 -3 0 -11 -7 -18z m1550 -41 c5 3 9 1 9 -4 0
-16 -38 -21 -44 -5 -3 8 -1 11 4 8 6 -3 10 0 11 7 0 10 2 10 6 0 2 -6 9 -10
14 -6z m-1811 -32 c0 -3 -5 -14 -10 -25 -11 -20 -30 -26 -30 -8 0 5 5 7 12 3
7 -4 8 -3 4 4 -4 7 -4 17 -1 22 7 11 25 14 25 4z m-40 -15 c0 -15 -18 -19 -23
-6 -3 8 1 14 9 14 8 0 14 -4 14 -8z m1957 -11 c-3 -8 -6 -5 -6 6 -1 11 2 17 5
13 3 -3 4 -12 1 -19z m-2001 -1 c8 3 14 0 14 -6 0 -6 -7 -11 -15 -11 -9 0 -12
-6 -9 -17 5 -15 4 -16 -5 -3 -8 12 -13 12 -23 2 -16 -16 -28 -15 -28 4 0 8 4
13 9 10 5 -4 16 -3 25 0 14 5 14 9 4 23 -10 13 -10 14 1 4 7 -6 20 -9 27 -6z
m2029 3 c-3 -5 -1 -10 5 -10 7 0 9 -7 6 -17 -4 -9 -1 -20 6 -24 7 -4 10 -11 6
-14 -10 -10 -41 43 -34 60 3 8 8 15 11 15 4 0 3 -4 0 -10z m-2105 -49 c0 -5
-7 -12 -16 -15 -14 -5 -15 -4 -4 9 14 17 20 19 20 6z m-76 -29 c13 -25 12 -30
-5 -52 -11 -14 -19 -20 -18 -15 1 6 1 17 -1 25 -1 11 -4 9 -10 -5 l-9 -20 -1
20 -1 20 -10 -20 -9 -20 3 20 c2 21 24 27 45 12 9 -7 12 -3 12 12 0 12 -4 20
-8 17 -4 -2 -8 4 -8 15 0 25 3 24 20 -9z m-89 -52 c-3 -5 -1 -10 6 -10 8 0 7
-5 -2 -17 -8 -9 -9 -14 -3 -10 7 4 17 1 23 -7 8 -10 5 -15 -15 -24 -33 -15
-34 -15 -34 6 0 14 2 15 10 2 9 -13 10 -13 10 0 0 8 -4 22 -10 30 -5 9 -5 19
2 27 12 15 22 17 13 3z m-125 -134 c0 -2 -8 -10 -17 -17 -16 -13 -17 -12 -4 4
13 16 21 21 21 13z m2777 -48 c1 -33 -12 -37 -27 -8 -9 17 -8 19 7 13 15 -6
16 -4 6 8 -10 13 -10 16 0 16 7 0 13 -13 14 -29z m-2860 0 c2 -17 0 -19 -7 -8
-5 8 -6 18 -4 22 8 12 10 10 11 -14z m2886 -9 c-9 -9 -12 -7 -10 9 1 14 5 18
11 12 7 -7 6 -14 -1 -21z m27 -9 c0 -5 -5 -10 -11 -10 -5 0 -7 5 -4 10 3 6 8
10 11 10 2 0 4 -4 4 -10z m23 -26 c2 -17 6 -35 10 -41 4 -7 3 -14 -2 -17 -5
-4 -12 3 -16 14 -4 11 -11 18 -16 14 -6 -3 -17 2 -24 12 -21 27 -18 43 3 19
29 -32 42 -29 35 8 -3 17 -3 29 0 26 4 -3 8 -19 10 -35z m30 -1 c-3 -7 -6 -13
-8 -13 -2 0 -5 6 -8 13 -3 8 1 14 8 14 7 0 11 -6 8 -14z m-3085 -48 c-3 -3 -9
2 -12 12 -6 14 -5 15 5 6 7 -7 10 -15 7 -18z m3120 0 c-3 -3 -9 2 -12 12 -6
14 -5 15 5 6 7 -7 10 -15 7 -18z m-3141 -29 c1 -12 -1 -15 -4 -8 -3 6 -8 10
-12 8 -4 -3 -8 1 -8 8 0 22 23 14 24 -8z m1790 -42 c243 -39 412 -97 569 -196
43 -28 168 -147 161 -154 -2 -3 -31 21 -63 52 -167 160 -392 253 -718 294 -90
12 -352 9 -411 -4 -24 -5 -204 -46 -225 -51 -17 -4 -67 -22 -165 -59 -87 -34
-74 -21 21 22 80 36 271 88 372 101 114 15 354 12 459 -5z m1436 -17 c3 -8 2
-20 -3 -26 -5 -9 -7 -4 -7 13 0 29 2 32 10 13z m-28 -36 c3 -5 1 -12 -5 -16
-5 -3 -10 1 -10 9 0 18 6 21 15 7z m146 -104 c-10 -9 -11 -8 -5 6 3 10 9 15
12 12 3 -3 0 -11 -7 -18z m-2541 -27 c-14 -11 -29 -20 -35 -20 -5 0 4 9 20 20
38 25 48 25 15 0z m-106 -72 c-3 -7 -17 -22 -32 -32 -27 -19 -27 -19 2 12 32
35 38 38 30 20z m2759 -63 c-3 -9 -8 -14 -10 -11 -3 3 -2 9 2 15 9 16 15 13 8
-4z m-2813 1 c0 -2 -7 -7 -16 -10 -8 -3 -12 -2 -9 4 6 10 25 14 25 6z m-1017
-41 c-7 -21 -12 -19 -10 4 0 11 5 18 9 15 4 -3 5 -11 1 -19z m2925 -30 c6 -14
10 -25 8 -25 -2 0 -11 11 -20 25 -9 14 -13 25 -8 25 5 0 14 -11 20 -25z m965
-1 c-4 -12 -8 -13 -14 -3 -9 15 -2 32 11 24 5 -3 6 -13 3 -21z m-5243 2 c0 -7
-20 -44 -45 -81 -39 -60 -43 -71 -31 -84 8 -9 12 -27 9 -42 -3 -15 0 -30 6
-34 6 -3 10 -1 9 6 -2 6 3 14 11 17 11 3 12 -1 7 -19 -20 -63 -19 -65 28 -104
25 -20 43 -41 40 -46 -7 -12 -61 -11 -67 1 -3 6 -4 5 -3 -2 2 -7 -5 -31 -15
-53 -25 -54 -24 -59 17 -102 33 -33 38 -46 46 -113 5 -41 10 -81 10 -87 1 -7
5 -13 9 -13 4 0 7 -8 7 -17 -2 -24 23 -96 35 -104 5 -4 7 -14 4 -23 -6 -14
-11 -14 -46 5 -22 11 -45 18 -51 14 -5 -3 -10 -1 -10 4 0 6 -10 11 -23 11 -33
0 -102 -93 -87 -119 7 -14 6 -22 -5 -31 -18 -15 -65 -5 -65 14 0 16 46 76 68
89 8 5 31 36 53 70 38 58 39 63 34 127 -7 97 -55 195 -95 195 -8 0 -15 5 -15
10 -1 6 -4 20 -9 33 -9 26 9 118 34 176 9 23 20 58 24 80 7 35 6 38 -11 30
-10 -4 -34 -9 -55 -10 -47 -2 -98 -34 -133 -84 -30 -43 -42 -49 -52 -24 -3 8
-12 13 -19 10 -8 -3 -14 1 -14 9 0 8 -5 15 -11 15 -5 0 -7 -4 -4 -10 4 -6 -1
-7 -11 -3 -10 4 -13 8 -7 10 7 3 10 10 7 17 -8 22 32 99 72 139 41 41 114 84
114 68 0 -5 13 -14 30 -19 26 -10 29 -15 27 -49 -1 -21 -7 -40 -14 -43 -9 -4
-9 -9 -2 -20 8 -12 12 -12 16 -2 3 7 14 22 25 32 12 11 17 24 13 31 -5 8 -4
10 3 5 7 -4 12 -3 12 3 0 16 101 121 111 115 5 -3 9 0 9 5 0 6 2 11 5 11 3 0
5 -6 5 -14z m2268 -71 c-12 -24 -23 -43 -26 -41 -4 5 36 86 43 86 3 0 -5 -20
-17 -45z m-993 -105 c3 -5 1 -10 -4 -10 -6 0 -11 5 -11 10 0 6 2 10 4 10 3 0
8 -4 11 -10z m-41 -46 c3 -8 2 -12 -4 -9 -6 3 -10 10 -10 16 0 14 7 11 14 -7z
m-86 -119 c-3 -3 -9 2 -12 12 -6 14 -5 15 5 6 7 -7 10 -15 7 -18z m-45 -111
c-7 -19 -10 -18 -16 5 -3 13 -1 18 9 14 7 -2 10 -11 7 -19z m3294 -46 c-3 -8
-6 -5 -6 6 -1 11 2 17 5 13 3 -3 4 -12 1 -19z m2367 -23 c3 -8 0 -14 -7 -12
-8 1 -12 -14 -12 -46 0 -37 -5 -52 -19 -63 -14 -10 -16 -14 -5 -14 10 -1 9 -5
-5 -15 -19 -14 -19 -15 -1 -15 10 0 15 -3 12 -6 -4 -4 -32 1 -64 11 -32 10
-53 20 -46 22 7 3 10 10 7 17 -3 7 9 34 26 59 29 43 60 64 88 59 6 -2 12 2 12
8 0 15 7 12 14 -5z m-1260 -11 c3 -8 2 -12 -4 -9 -6 3 -10 10 -10 16 0 14 7
11 14 -7z m1266 -65 c0 -5 -4 -9 -8 -9 -5 0 -9 7 -9 15 0 8 4 12 9 9 4 -3 8
-9 8 -15z m-2350 -19 c0 -5 -5 -10 -11 -10 -5 0 -7 5 -4 10 3 6 8 10 11 10 2
0 4 -4 4 -10z m-3432 -45 c-3 -3 -9 2 -12 12 -6 14 -5 15 5 6 7 -7 10 -15 7
-18z m-98 -250 c0 -8 -2 -15 -4 -15 -2 0 -6 7 -10 15 -3 8 -1 15 4 15 6 0 10
-7 10 -15z m3814 -4 c4 -5 -3 -7 -14 -4 -23 6 -26 13 -6 13 8 0 17 -4 20 -9z
m95 -17 c9 -8 -45 -2 -64 6 -14 7 -8 8 20 3 22 -3 42 -7 44 -9z m44 -11 c-7
-2 -19 -2 -25 0 -7 3 -2 5 12 5 14 0 19 -2 13 -5z m1851 -54 c-1 -13 -2 -31
-3 -41 0 -9 -28 -45 -61 -80 -63 -67 -63 -66 -60 -113 2 -46 26 -90 76 -141
46 -46 126 -90 144 -79 6 3 10 1 10 -5 0 -6 5 -8 11 -4 6 3 3 -6 -7 -21 -16
-25 -22 -27 -71 -23 -74 6 -160 52 -198 107 -25 36 -30 51 -28 95 1 44 -1 52
-16 53 -13 1 -25 -12 -36 -37 -10 -22 -22 -37 -26 -34 -5 3 -6 -2 -3 -10 3 -9
1 -16 -5 -16 -6 0 -11 -5 -11 -11 0 -7 -8 -18 -17 -26 -10 -8 -12 -12 -6 -8
15 7 13 -41 -2 -64 -5 -10 -4 -12 3 -7 8 4 12 0 12 -12 0 -10 12 -32 26 -48
15 -16 23 -22 19 -14 -5 8 3 5 17 -7 13 -13 31 -23 39 -23 11 0 11 -2 1 -9
-15 -9 18 -25 78 -37 44 -8 140 -53 140 -65 0 -13 -12 -11 -45 9 -17 10 -47
18 -67 17 -21 -1 -38 1 -38 5 0 3 -35 22 -77 43 -75 35 -79 39 -115 106 -32
60 -36 76 -33 124 4 73 12 94 36 100 16 4 19 2 14 -13 -3 -10 0 -22 7 -26 7
-4 10 -3 5 1 -4 5 1 17 10 28 10 11 13 17 6 14 -6 -4 -14 -3 -18 2 -3 6 -13 8
-23 5 -13 -5 -14 -4 -4 4 8 5 13 12 12 16 -4 14 23 66 31 60 5 -3 9 2 9 11 0
9 4 13 10 10 5 -3 7 0 4 9 -8 22 122 150 169 165 20 7 37 17 37 21 0 5 10 6
23 1 15 -6 22 -16 21 -32z m-6772 -30 c-3 -21 5 -33 41 -63 24 -20 47 -36 51
-36 4 0 14 -7 23 -15 20 -21 71 -13 90 14 19 28 30 26 46 -6 31 -61 45 -208
27 -274 -11 -40 -95 -135 -105 -119 -3 5 -2 10 2 10 10 0 10 47 0 56 -3 4 -1
16 5 28 10 19 10 20 -5 7 -10 -7 -17 -10 -17 -5 0 5 -9 -5 -19 -22 -10 -17
-33 -41 -50 -55 -17 -13 -51 -41 -74 -61 -23 -21 -45 -38 -48 -38 -7 0 -20
-40 -14 -40 2 0 26 12 53 26 71 37 85 25 21 -18 -51 -34 -80 -42 -190 -53 -9
-1 -27 -10 -40 -19 -43 -30 -51 -22 -43 42 8 67 21 97 61 134 54 52 220 168
239 168 6 0 10 -11 9 -25 -2 -14 1 -25 6 -25 5 0 9 4 9 10 0 5 7 7 15 4 10 -4
20 6 32 33 10 21 21 40 25 43 8 6 -14 72 -33 95 -13 15 -88 99 -146 162 -23
24 -32 60 -13 48 6 -3 10 0 10 7 0 8 8 14 18 14 14 0 17 -7 14 -27z m288 -99
c0 -5 -5 -10 -11 -10 -5 0 -7 5 -4 10 3 6 8 10 11 10 2 0 4 -4 4 -10z m236
-195 c38 -16 75 -81 68 -119 -11 -61 -16 -76 -25 -70 -5 3 -9 -1 -9 -8 0 -9
-3 -9 -10 2 -8 13 -11 13 -26 -2 -12 -12 -23 -14 -40 -8 -13 5 -31 7 -41 3
-12 -5 -14 -3 -8 7 5 8 2 18 -9 25 -15 12 -31 55 -20 55 3 0 14 -5 25 -10 13
-7 19 -7 19 0 0 5 7 10 16 10 9 0 12 5 8 13 -4 6 1 4 12 -5 19 -16 20 -16 19
7 -1 14 -10 34 -20 45 -14 16 -15 20 -4 20 8 0 20 -5 26 -11 9 -9 12 -7 10 8
-1 14 -6 19 -16 15 -10 -4 -12 -1 -6 7 6 10 2 11 -15 6 -17 -5 -21 -4 -15 6 6
9 3 11 -8 6 -10 -3 -17 -2 -17 3 0 15 46 12 86 -5z m5426 8 c-6 -2 -9 -10 -5
-16 3 -7 3 -9 -2 -5 -10 9 -35 -23 -28 -35 3 -5 9 -3 14 4 6 10 9 8 9 -9 0
-13 5 -32 10 -43 8 -15 7 -19 -5 -19 -8 0 -15 -7 -15 -15 0 -8 6 -15 13 -15 8
0 7 -4 -3 -10 -13 -9 -13 -10 0 -10 10 0 11 -3 4 -8 -14 -9 -14 -42 0 -42 6 0
4 -4 -4 -10 -20 -13 -8 -21 31 -21 122 0 145 -1 162 -11 15 -8 17 -12 6 -18
-7 -5 -16 -7 -21 -4 -11 7 -118 7 -125 1 -3 -4 2 -14 11 -23 21 -21 16 -27
-17 -19 -17 5 -24 12 -20 21 8 22 -20 16 -43 -9 -12 -12 -34 -23 -49 -25 -35
-3 -58 -21 -50 -40 4 -12 3 -13 -10 -2 -12 10 -23 8 -57 -9 -56 -27 -219 -159
-234 -189 -6 -12 -20 -33 -31 -45 -32 -35 -93 -166 -87 -185 4 -13 3 -14 -4
-4 -7 11 -10 11 -15 -2 -4 -9 -1 -16 6 -16 8 0 8 -3 -1 -9 -8 -4 -14 -24 -15
-42 -1 -19 -6 -37 -11 -40 -5 -4 -12 -28 -16 -53 -5 -36 -3 -53 11 -76 10 -16
14 -30 9 -30 -5 0 -14 8 -19 18 -8 12 -10 -10 -8 -83 8 -238 -45 -409 -152
-495 -176 -139 -431 -143 -631 -10 -134 89 -262 327 -277 516 l-6 71 66 72
c77 83 124 172 139 263 10 55 9 75 -6 129 -29 109 -40 97 129 139 364 90 982
304 1285 443 30 14 60 25 65 25 6 0 4 -2 -3 -5z m-5054 -52 c66 -33 423 -172
597 -233 201 -70 460 -146 638 -187 71 -16 131 -31 133 -34 2 -2 -3 -24 -11
-48 -56 -156 -10 -321 124 -454 71 -69 73 -83 42 -208 -41 -159 -119 -307
-207 -392 -64 -63 -189 -122 -286 -136 -196 -28 -379 48 -467 196 -43 70 -69
218 -65 370 3 159 -48 394 -84 380 -12 -4 -13 1 -9 24 5 23 1 37 -18 60 -14
16 -25 37 -25 47 0 11 -10 31 -23 46 -12 15 -33 43 -47 62 -14 19 -28 32 -32
29 -5 -2 -8 2 -8 9 0 14 -34 44 -43 37 -3 -2 -22 17 -43 44 -20 26 -41 47 -47
47 -7 0 -7 -4 1 -12 7 -7 12 -16 12 -21 0 -5 -7 -1 -16 7 -8 9 -22 16 -29 16
-8 0 -21 10 -29 22 -9 12 -16 18 -16 13 0 -6 -5 -2 -11 8 -5 9 -19 17 -30 17
-11 0 -17 5 -14 10 3 6 -1 10 -9 10 -9 0 -16 5 -16 11 0 5 -3 8 -8 5 -4 -2
-18 2 -32 11 -24 13 -24 14 -2 10 12 -3 22 -1 22 4 0 5 -4 9 -9 9 -5 0 -12 7
-15 16 -6 15 -4 15 11 3 13 -11 15 -11 9 -1 -10 17 -13 92 -3 92 4 0 7 5 7 11
0 5 -4 8 -9 5 -5 -3 -8 6 -8 19 0 14 3 25 8 25 5 0 9 9 9 21 0 11 -4 18 -9 15
-5 -3 -11 1 -14 9 -4 9 -1 12 7 9 8 -3 17 -1 21 5 8 14 10 14 53 -8z m5755
-135 c3 -7 19 -16 36 -19 22 -5 29 -11 25 -22 -5 -11 -1 -14 12 -9 11 3 4 -3
-15 -14 -26 -14 -42 -17 -63 -11 -15 4 -28 5 -28 1 0 -3 -5 -1 -12 6 -14 14
-20 45 -7 36 5 -3 9 0 9 6 0 6 5 8 12 4 7 -4 8 -3 4 4 -8 13 0 32 14 32 4 0
10 -6 13 -14z m-383 -36 c14 -4 23 -9 20 -10 -19 -6 -72 -13 -110 -14 -35 -1
-45 3 -48 17 -3 15 4 17 55 16 32 -1 69 -5 83 -9z m-6105 -19 c-3 -6 -11 -11
-16 -11 -5 0 -4 6 3 14 14 16 24 13 13 -3z m364 -1 c-7 -5 -23 -6 -36 -4 -13
3 -36 -2 -53 -11 -34 -18 -66 -19 -75 -4 -11 16 -1 20 62 26 32 2 59 6 61 7 1
2 14 1 28 -2 17 -3 22 -7 13 -12z m5801 -1 c0 -4 8 -5 18 -2 15 6 15 5 3 -10
-12 -15 -11 -17 8 -17 12 0 20 -4 16 -10 -3 -5 -13 -6 -22 -3 -12 5 -14 3 -8
-7 6 -9 4 -11 -5 -5 -7 4 -16 2 -21 -6 -6 -11 -9 -8 -9 8 0 30 -16 37 -42 19
-28 -20 -58 -20 -58 -1 0 14 13 20 34 16 22 -5 56 10 56 24 0 9 6 12 15 9 8
-4 15 -10 15 -15z m-6007 -14 c16 -22 16 -25 2 -25 -9 0 -20 10 -25 23 -5 12
-9 16 -9 10 -1 -7 -8 -13 -16 -13 -8 0 -15 -9 -15 -20 0 -17 -3 -19 -19 -10
-11 5 -30 10 -42 10 -32 0 -18 10 43 31 66 22 60 23 81 -6z m400 -11 c9 -3 17
-9 17 -14 0 -16 -19 -21 -41 -10 -11 6 -28 8 -37 4 -9 -4 -23 -6 -31 -5 -7 1
-10 -2 -7 -7 3 -5 -6 -7 -19 -4 -16 3 -25 0 -25 -9 0 -10 -3 -10 -12 -1 -10
10 -10 15 2 22 8 6 21 8 28 5 6 -2 12 0 12 5 0 6 -4 10 -10 10 -5 0 -10 5 -10
11 0 11 87 6 133 -7z m5735 8 c13 -4 23 -11 23 -17 -1 -5 12 -14 29 -18 43
-11 39 -31 -5 -24 -39 6 -105 43 -105 58 0 10 23 10 58 1z m-5990 -16 c-10 -7
-15 -16 -11 -19 3 -4 -6 -7 -21 -7 -31 0 -27 16 8 30 32 13 43 11 24 -4z m82
10 c0 -3 -4 -8 -10 -11 -5 -3 -10 -1 -10 4 0 6 5 11 10 11 6 0 10 -2 10 -4z
m-257 -30 c4 -10 1 -13 -9 -9 -15 6 -19 23 -5 23 5 0 11 -7 14 -14z m-119 -11
c4 -11 -1 -15 -19 -15 -29 0 -41 -16 -25 -35 14 -17 -3 -29 -30 -20 -20 6 -20
7 2 35 13 16 29 29 36 29 6 1 12 6 12 11 0 15 17 12 24 -5z m6014 -5 c3 -7 0
-10 -6 -6 -6 3 -13 0 -15 -6 -3 -7 -6 -2 -6 10 -1 25 19 26 27 2z m-5393 0 c4
-6 -7 -13 -24 -16 -17 -4 -28 -10 -26 -15 3 -4 0 -11 -6 -15 -7 -4 -9 -3 -5 4
3 6 1 14 -5 18 -8 4 -4 11 12 20 29 16 46 17 54 4z m6111 -4 c8 -8 14 -22 14
-31 0 -9 5 -26 11 -37 8 -16 8 -22 -2 -29 -8 -4 -16 -3 -20 3 -4 7 -8 6 -12
-3 -4 -11 -6 -10 -6 2 -1 9 -12 22 -25 29 -29 15 -37 50 -16 67 20 16 38 16
56 -1z m-6524 -14 c-7 -2 -9 -8 -6 -14 8 -12 -29 -6 -38 7 -9 12 21 24 41 17
11 -4 11 -7 3 -10z m142 9 c18 -7 18 -8 3 -14 -20 -7 -47 1 -47 14 0 11 17 11
44 0z m156 -17 c0 -8 -9 -14 -20 -14 -22 0 -26 10 -8 28 13 13 28 7 28 -14z
m5594 20 c9 -3 16 -10 16 -15 0 -12 -46 -7 -57 6 -4 4 -2 5 5 1 6 -4 12 -2 12
3 0 13 3 13 24 5z m-6020 -19 c-6 -16 -54 -21 -54 -7 0 15 12 22 36 22 17 0
22 -4 18 -15z m576 5 c0 -5 -2 -10 -4 -10 -3 0 -8 5 -11 10 -3 6 -1 10 4 10 6
0 11 -4 11 -10z m5280 6 c0 -2 -7 -6 -15 -10 -8 -3 -15 -1 -15 4 0 6 7 10 15
10 8 0 15 -2 15 -4z m475 -27 c-4 -5 0 -9 8 -9 8 0 17 -6 20 -13 6 -17 -30
-16 -61 1 -24 14 -20 37 4 28 8 -3 14 -1 14 5 0 6 5 7 10 4 6 -4 8 -11 5 -16z
m-5721 -11 c-5 -8 -2 -9 10 -5 10 4 15 3 11 -3 -8 -13 -45 -13 -45 -1 0 5 6
12 13 14 18 8 19 8 11 -5z m5116 3 c0 -6 -5 -13 -12 -17 -6 -4 -8 -3 -4 4 3 5
0 13 -6 15 -8 3 -6 6 5 6 9 1 17 -3 17 -8z m807 -22 c14 -13 13 -15 -13 -19
-26 -5 -84 16 -84 31 0 11 81 1 97 -12z m-6743 -1 c-7 -11 -74 -10 -74 2 0 5
18 9 40 8 21 -1 37 -5 34 -10z m-146 -19 c2 -9 -13 -24 -38 -38 -22 -12 -40
-19 -40 -15 0 3 -7 1 -15 -6 -12 -10 -15 -9 -15 8 0 44 100 92 108 51z m5987
11 c3 -6 -1 -7 -9 -4 -18 7 -21 14 -7 14 6 0 13 -4 16 -10z m950 0 c3 -5 2
-10 -4 -10 -5 0 -13 5 -16 10 -3 6 -2 10 4 10 5 0 13 -4 16 -10z m45 -20 c0
-5 -4 -10 -10 -10 -5 0 -10 5 -10 10 0 6 5 10 10 10 6 0 10 -4 10 -10z m-7136
-19 c23 -25 11 -45 -20 -37 -13 4 -24 3 -23 -1 4 -22 -4 -32 -31 -42 -59 -20
-48 42 13 79 39 24 40 24 61 1z m229 12 c9 -9 -12 -33 -29 -33 -15 0 -15 21 1
32 13 10 20 10 28 1z m7063 -11 c19 -12 44 -70 38 -86 -10 -26 -38 -18 -74 19
-26 27 -31 37 -22 48 7 8 9 17 5 20 -9 9 39 8 53 -1z m-181 -27 l30 -13 -42
-1 c-32 -1 -43 3 -43 14 0 18 16 18 55 0z m-5820 -26 c11 -16 1 -19 -13 -3 -7
8 -8 14 -3 14 5 0 13 -5 16 -11z m4635 -3 c0 -3 -4 -8 -10 -11 -5 -3 -10 -1
-10 4 0 6 5 11 10 11 6 0 10 -2 10 -4z m1297 -41 c13 -28 4 -38 -24 -28 -26 9
-33 24 -22 45 12 22 31 15 46 -17z m-7219 12 c-40 -39 -93 -61 -82 -34 6 17
55 46 77 47 15 0 16 -2 5 -13z m33 -55 c-10 -20 -58 -38 -69 -27 -3 3 3 12 14
19 10 8 28 21 39 29 23 18 31 7 16 -21z m5812 0 c-3 -12 -9 -19 -14 -16 -5 3
-4 14 2 25 13 26 20 21 12 -9z m1591 -13 c47 -41 78 -169 41 -169 -8 0 -15 6
-15 14 0 8 -16 37 -35 66 -19 29 -32 57 -28 63 3 6 1 7 -5 3 -8 -4 -12 0 -12
12 0 37 19 41 54 11z m-7592 2 c-8 -4 -13 -11 -13 -14 0 -4 -13 -35 -29 -69
-17 -35 -30 -69 -30 -76 0 -8 -8 -12 -17 -10 -14 3 -17 11 -14 43 5 59 27 94
76 123 23 13 47 16 27 3z m1326 -46 c68 -46 160 -146 187 -202 39 -82 48 -143
41 -262 -19 -313 -19 -367 -1 -447 58 -263 250 -473 488 -533 70 -18 70 -19
46 -34 -46 -30 -179 -67 -276 -77 -110 -11 -274 0 -298 20 -46 38 -154 281
-204 457 -79 277 -96 438 -88 813 3 151 9 283 12 292 8 20 35 12 93 -27z
m1514 33 c3 -7 5 -35 6 -63 2 -57 -11 -38 -22 33 -6 38 6 60 16 30z m1838
-112 c-28 -47 -33 -46 -15 5 8 23 15 54 15 69 0 43 15 46 18 2 2 -26 -4 -51
-18 -76z m1657 67 c4 -27 8 -174 7 -328 0 -304 -13 -425 -70 -634 -56 -206
-165 -467 -229 -548 l-22 -27 -160 -4 c-97 -3 -187 0 -229 7 -76 13 -205 60
-211 76 -2 6 27 16 64 23 214 39 410 218 490 450 25 70 27 90 27 227 0 83 -4
213 -8 290 -7 117 -6 149 7 196 21 69 86 168 143 215 53 43 153 104 170 104 7
0 16 -20 21 -47z m-3598 -165 c12 -32 27 -60 32 -64 5 -3 7 -10 4 -15 -4 -5
-2 -9 3 -9 5 0 18 -12 27 -27 l18 -28 -27 25 c-66 60 -115 193 -100 272 l8 43
7 -70 c3 -38 16 -96 28 -127z m2098 135 c-3 -10 -5 -2 -5 17 0 19 2 27 5 18 2
-10 2 -26 0 -35z m-3227 22 c7 -9 8 -15 2 -15 -5 0 -12 7 -16 15 -3 8 -4 15
-2 15 2 0 9 -7 16 -15z m5959 -69 c6 -14 7 -26 2 -26 -11 0 -46 56 -56 90 -7
23 -6 23 18 -6 15 -17 31 -43 36 -58z m-103 28 c-15 -16 -15 -14 -9 21 5 25 7
26 13 10 4 -11 2 -25 -4 -31z m-7446 -9 c-17 -25 -36 -45 -43 -44 -9 0 -9 2 0
5 7 3 9 12 6 21 -5 12 -3 14 7 8 9 -6 11 -4 6 4 -9 14 21 51 41 51 9 0 4 -15
-17 -45z m5912 13 c-8 -8 -9 -4 -5 13 4 13 8 18 11 10 2 -7 -1 -18 -6 -23z
m-1096 -34 c-4 -9 -9 -15 -11 -12 -3 3 -3 13 1 22 4 9 9 15 11 12 3 -3 3 -13
-1 -22z m-3161 -25 c11 -17 -1 -21 -15 -4 -8 9 -8 15 -2 15 6 0 14 -5 17 -11z
m5955 -152 c0 -16 -2 -17 -15 -7 -9 7 -14 19 -11 26 2 6 -1 20 -9 30 -7 10
-10 25 -7 32 6 17 42 -52 42 -81z m-7752 -4 c-11 -32 -24 -60 -30 -62 -6 -2
-7 -6 -1 -10 6 -3 3 -14 -8 -25 -17 -18 -18 -17 -12 5 5 17 3 20 -7 14 -10 -6
-11 -4 -5 11 4 10 7 30 6 43 -2 36 46 106 63 92 10 -9 9 -22 -6 -68z m7822 45
c26 -43 35 -109 19 -139 -9 -18 -14 -20 -17 -9 -3 8 -11 21 -19 28 -7 7 -13
28 -13 45 0 18 -4 46 -9 64 -15 53 9 60 39 11z m-7413 -35 c-35 -71 -49 -134
-57 -268 l-7 -120 -1 110 c-1 61 3 130 8 155 10 46 70 183 78 176 2 -2 -8 -26
-21 -53z m-360 -5 c-3 -7 -5 -2 -5 12 0 14 2 19 5 13 2 -7 2 -19 0 -25z m51
-10 c-5 -24 -15 -49 -23 -57 -10 -10 -9 0 3 43 20 66 34 75 20 14z m1762 16
c0 -22 -16 -17 -17 6 -1 11 2 18 8 15 5 -4 9 -13 9 -21z m3015 -24 c-3 -5 -12
-10 -18 -10 -7 0 -6 4 3 10 19 12 23 12 15 0z m-4825 -10 c0 -5 -4 -10 -10
-10 -5 0 -10 5 -10 10 0 6 5 10 10 10 6 0 10 -4 10 -10z m1840 -21 c0 -5 -4
-9 -10 -9 -5 0 -10 7 -10 16 0 8 5 12 10 9 6 -3 10 -10 10 -16z m5852 -11 c-9
-9 -12 -7 -12 12 0 19 3 21 12 12 9 -9 9 -15 0 -24z m-2917 2 c-3 -5 -12 -10
-18 -10 -7 0 -6 4 3 10 19 12 23 12 15 0z m-2941 -69 c-4 -3 -9 0 -11 7 -3 6
-8 10 -12 8 -4 -3 -8 5 -8 17 -2 22 -2 22 18 -2 11 -13 17 -27 13 -30z m-1871
-66 c-3 -9 -8 -14 -10 -11 -3 3 -2 9 2 15 9 16 15 13 8 -4z m-60 -156 c-7 -8
-13 -20 -13 -25 0 -5 5 -2 10 6 8 13 10 12 10 -3 0 -25 -22 -17 -38 14 -17 32
-10 111 14 146 l19 28 6 -75 c4 -54 1 -79 -8 -91z m1957 136 c0 -16 -6 -25
-15 -25 -16 0 -19 9 -9 34 9 25 24 19 24 -9z m5923 -12 c-4 -10 -2 -14 4 -10
18 11 25 -64 10 -105 -19 -54 -22 -53 -25 15 -1 34 -5 80 -8 102 -6 35 -5 38
9 27 9 -8 13 -21 10 -29z m-7783 -31 c0 -7 -4 -10 -10 -7 -5 3 -10 16 -10 28
0 18 2 19 10 7 5 -8 10 -21 10 -28z m5854 -17 c3 -8 1 -15 -4 -15 -6 0 -10 7
-10 15 0 8 2 15 4 15 2 0 6 -7 10 -15z m-1066 -225 c30 -70 98 -178 163 -257
32 -40 59 -76 59 -80 0 -13 -52 43 -100 107 -100 136 -158 250 -185 362 -20
86 -5 79 21 -9 12 -43 31 -98 42 -123z m-2928 165 c0 -8 -4 -15 -10 -15 -5 0
-10 7 -10 15 0 8 5 15 10 15 6 0 10 -7 10 -15z m-12 -81 c-4 -3 -12 5 -18 18
-12 22 -12 22 6 6 10 -10 15 -20 12 -24z m4012 0 c0 -8 -5 -12 -10 -9 -6 4 -8
11 -5 16 9 14 15 11 15 -7z m-5553 -16 c-3 -8 -6 -5 -6 6 -1 11 2 17 5 13 3
-3 4 -12 1 -19z m2614 -5 c-12 -20 -14 -14 -5 12 4 9 9 14 11 11 3 -2 0 -13
-6 -23z m-26 -69 c-8 -16 -15 -24 -15 -17 0 18 24 67 27 56 2 -5 -3 -23 -12
-39z m-2578 4 c-3 -7 -5 -2 -5 12 0 14 2 19 5 13 2 -7 2 -19 0 -25z m1543 -2
c0 -5 -7 -3 -15 4 -8 7 -12 17 -9 22 7 10 24 -9 24 -26z m-1907 -113 c9 -14
-3 -73 -15 -73 -13 0 -40 69 -34 86 3 7 1 16 -4 19 -14 8 -12 52 2 78 10 20
13 16 27 -38 9 -33 20 -65 24 -72z m1910 82 c4 -8 2 -17 -3 -20 -6 -4 -10 3
-10 14 0 25 6 27 13 6z m983 -63 c-18 -16 -18 -16 -6 6 6 13 14 21 18 18 3 -4
-2 -14 -12 -24z m-2492 -17 c5 -22 4 -26 -4 -15 -5 8 -10 24 -10 34 0 26 6 18
14 -19z m2467 -28 c-10 -9 -11 -8 -5 6 3 10 9 15 12 12 3 -3 0 -11 -7 -18z
m-911 -37 c0 -13 -1 -13 -10 0 -5 8 -10 22 -10 30 0 13 1 13 10 0 5 -8 10 -22
10 -30z m891 3 c-17 -28 -38 -53 -45 -53 -4 0 5 16 20 35 28 37 41 47 25 18z
m-90 -116 l-24 -22 19 27 c10 14 21 24 23 22 3 -3 -6 -15 -18 -27z m-677 -26
c-2 -3 -12 3 -22 13 -16 17 -16 18 5 5 12 -7 20 -15 17 -18z m-2019 -21 c-3
-5 0 -7 7 -5 12 5 47 -40 50 -62 0 -5 3 -14 6 -21 7 -19 -7 -28 -26 -16 -33
21 -67 114 -41 114 5 0 7 -4 4 -10z m7655 1 c0 -22 -26 -78 -43 -93 -20 -18
-47 -24 -47 -12 0 19 64 114 76 114 8 0 14 -4 14 -9z m-7020 -130 c41 -13 174
-72 295 -132 216 -107 393 -171 535 -195 25 -4 38 -9 29 -11 -26 -6 -206 34
-322 71 -59 20 -171 69 -250 110 -237 123 -312 150 -444 155 -61 2 -187 -22
-211 -42 -13 -10 -82 -19 -82 -11 0 5 63 33 89 40 81 20 158 34 200 36 28 2
51 4 51 6 0 1 -8 15 -17 30 -17 27 -17 27 18 -4 21 -18 63 -39 109 -53z m6695
-5 c70 -20 105 -37 98 -49 -3 -6 -1 -7 5 -3 16 9 52 -11 52 -29 0 -8 -4 -15
-10 -15 -5 0 -10 5 -10 11 0 5 -4 7 -10 4 -5 -3 -10 -1 -10 4 0 6 -7 11 -15
11 -8 0 -15 4 -15 8 0 14 -92 41 -160 47 -188 18 -264 -1 -535 -135 -224 -110
-267 -127 -390 -156 -99 -23 -285 -52 -280 -44 3 4 26 10 53 14 170 22 447
113 581 189 132 76 267 135 366 161 36 9 229 -3 280 -18z m-7180 -66 c3 -5 2
-10 -4 -10 -5 0 -13 5 -16 10 -3 6 -2 10 4 10 5 0 13 -4 16 -10z m-21 -18 c3
-5 -1 -9 -9 -9 -8 0 -15 4 -15 9 0 4 4 8 9 8 6 0 12 -4 15 -8z m7411 -12 c4
-6 3 -10 -2 -9 -29 5 -36 -1 -20 -19 27 -29 20 -38 -8 -12 l-26 24 23 13 c28
15 26 15 33 3z m-7465 -35 c0 -9 -6 -12 -17 -8 -12 5 -14 3 -8 -7 5 -9 4 -11
-4 -6 -9 6 -9 11 0 22 15 18 29 18 29 -1z m7520 -16 c0 -6 4 -8 8 -5 5 3 9 -1
9 -9 0 -24 -14 -18 -38 16 l-22 31 21 -11 c12 -7 22 -16 22 -22z m-7552 -31
c-3 -7 -12 -14 -22 -14 -15 -2 -15 -2 0 3 14 4 14 7 3 14 -11 7 -10 9 4 9 11
0 17 -6 15 -12z m7525 -2 c4 -9 0 -13 -11 -12 -9 2 -18 8 -20 14 -5 17 25 15
31 -2z m78 -22 c12 -14 11 -16 -5 -13 -11 2 -21 10 -24 17 -5 17 13 15 29 -4z
m-7648 -17 c3 -8 0 -14 -7 -14 -7 0 -13 6 -13 14 0 7 4 13 8 13 4 0 9 -6 12
-13z m7681 -33 c20 -8 21 -24 2 -24 -8 0 -16 7 -20 15 -6 17 -4 18 18 9z m-4
-74 c0 -5 -4 -10 -10 -10 -5 0 -10 5 -10 10 0 6 5 10 10 10 6 0 10 -4 10 -10z
m-6117 -17 c-7 -2 -19 -2 -25 0 -7 3 -2 5 12 5 14 0 19 -2 13 -5z m80 -10 c-7
-2 -21 -2 -30 0 -10 3 -4 5 12 5 17 0 24 -2 18 -5z m4124 1 c-3 -3 -12 -4 -19
-1 -8 3 -5 6 6 6 11 1 17 -2 13 -5z m251 -1 c-16 -2 -40 -2 -55 0 -16 2 -3 4
27 4 30 0 43 -2 28 -4z m-4230 -10 c-15 -2 -42 -2 -60 0 -18 2 -6 4 27 4 33 0
48 -2 33 -4z m-1351 -19 c-3 -3 -12 -4 -19 -1 -8 3 -5 6 6 6 11 1 17 -2 13 -5z
m6828 -14 c3 -5 1 -10 -4 -10 -6 0 -11 5 -11 10 0 6 2 10 4 10 3 0 8 -4 11
-10z m442 -12 c-3 -8 -6 -5 -6 6 -1 11 2 17 5 13 3 -3 4 -12 1 -19z m-6040
-60 l28 -11 -30 -7 c-16 -3 -29 -10 -28 -16 1 -5 -9 -9 -22 -9 -12 0 -21 5
-18 11 2 6 -3 14 -12 18 -9 3 -18 0 -21 -8 -4 -10 -14 -12 -40 -6 -19 4 -37 4
-40 -1 -3 -5 0 -9 7 -9 7 0 2 -9 -11 -20 -25 -22 -44 -11 -32 18 3 9 0 13 -7
11 -7 -3 -12 -8 -11 -13 3 -15 -23 -25 -42 -15 -12 7 -28 4 -55 -11 -21 -11
-44 -20 -51 -20 -7 0 -34 -12 -60 -27 -43 -25 -45 -25 -28 -5 77 88 370 163
473 120z m4313 2 c0 -5 -5 -10 -11 -10 -5 0 -7 5 -4 10 3 6 8 10 11 10 2 0 4
-4 4 -10z m220 0 c22 -6 38 -15 35 -20 -3 -6 0 -7 8 -4 20 7 163 -66 147 -76
-18 -11 21 -47 76 -70 24 -11 44 -24 44 -30 0 -6 5 -8 10 -5 6 3 10 1 10 -5 0
-6 4 -8 10 -5 14 8 68 -22 80 -45 14 -26 3 -45 -16 -29 -7 6 -11 16 -8 21 4 6
-2 8 -15 3 -15 -5 -21 -2 -21 9 0 9 -5 16 -10 16 -10 0 -21 8 -54 37 -8 7 -16
10 -19 7 -3 -3 -15 3 -26 13 -12 10 -25 17 -29 17 -4 -1 -16 5 -27 12 -23 16
-39 18 -30 4 4 -6 -2 -7 -17 -1 -27 10 -31 36 -6 36 57 1 -7 42 -72 47 -18 1
-34 8 -37 14 -13 33 -144 53 -185 28 -7 -4 -8 -3 -4 5 6 8 0 11 -20 9 -15 -2
-29 2 -31 8 -5 15 154 18 207 4z m-30 -60 c0 -5 6 -7 14 -4 8 3 17 0 21 -6 11
-19 1 -20 -30 -4 -15 8 -39 15 -52 16 -22 2 -22 4 -7 15 18 13 54 2 54 -17z
m1517 8 c-3 -8 -6 -5 -6 6 -1 11 2 17 5 13 3 -3 4 -12 1 -19z m-7707 -23 c0
-8 -2 -15 -4 -15 -2 0 -6 7 -10 15 -3 8 -1 15 4 15 6 0 10 -7 10 -15z m80 -58
c11 -5 9 -6 -4 -4 -11 1 -21 9 -23 17 -3 10 -2 11 4 4 4 -6 15 -14 23 -17z
m1291 3 c-15 -13 -31 -18 -46 -14 -13 3 -26 1 -29 -5 -4 -6 -21 -11 -37 -11
-17 0 -44 -7 -61 -16 -16 -9 -27 -11 -23 -5 13 23 128 68 174 69 l46 2 -24
-20z m-276 -56 c-18 -15 -36 -22 -49 -19 -12 3 -15 2 -8 -1 6 -3 10 -10 6 -15
-7 -12 -24 -1 -24 16 0 25 31 46 61 41 17 -2 29 0 29 7 0 5 3 7 7 3 4 -4 -6
-18 -22 -32z m4725 21 c0 -9 -9 -15 -21 -15 -18 0 -19 2 -9 15 7 8 16 15 21
15 5 0 9 -7 9 -15z m570 -20 c0 -8 -2 -15 -4 -15 -2 0 -6 7 -10 15 -3 8 -1 15
4 15 6 0 10 -7 10 -15z m488 3 c-5 -24 -55 -49 -83 -42 -32 8 -30 10 31 34 27
10 50 19 52 19 1 1 1 -5 0 -11z m-5614 -13 c8 -21 -22 -46 -50 -41 -13 3 -26
0 -30 -5 -3 -5 -10 -7 -15 -3 -13 8 -2 22 35 45 37 23 52 24 60 4z m5176 5 c0
-5 -4 -10 -10 -10 -5 0 -10 5 -10 10 0 6 5 10 10 10 6 0 10 -4 10 -10z m-5281
-4 c-29 -27 -93 -76 -100 -76 -20 0 6 32 45 55 35 21 69 34 55 21z m-317 -15
c-11 -7 -11 -9 2 -14 9 -4 16 -2 16 3 0 6 8 10 18 10 14 0 15 -2 2 -10 -11 -7
-5 -10 23 -10 20 0 37 -4 37 -10 0 -5 7 -6 17 -3 11 4 14 3 9 -6 -5 -7 -18
-10 -34 -6 -15 3 -40 8 -56 11 -39 7 -72 30 -54 37 21 9 34 7 20 -2z m3104
-199 c31 -81 68 -176 82 -212 41 -106 136 -291 184 -355 24 -33 64 -96 88
-139 23 -43 62 -102 84 -130 23 -28 59 -76 81 -106 22 -30 62 -79 89 -108 27
-29 47 -54 45 -56 -12 -12 -188 -56 -296 -75 -271 -46 -577 -52 -848 -16 -166
22 -355 72 -355 95 0 6 24 37 54 69 30 33 62 73 70 90 9 17 48 65 86 108 41
45 85 108 107 153 21 41 61 107 89 145 101 138 132 201 235 478 59 158 82 210
102 236 18 22 41 -17 103 -177z m2601 142 c-3 -3 -12 -4 -19 -1 -8 3 -5 6 6 6
11 1 17 -2 13 -5z m-9 -50 c15 -13 20 -24 14 -28 -6 -3 -13 -2 -17 4 -4 6 -10
8 -14 6 -4 -3 -16 11 -25 31 -19 40 -16 39 42 -13z m-5443 26 c-3 -5 -11 -10
-16 -10 -6 0 -7 5 -4 10 3 6 11 10 16 10 6 0 7 -4 4 -10z m-50 -42 c-51 -61
-79 -87 -88 -81 -6 3 -7 1 -3 -5 3 -6 2 -13 -4 -17 -5 -3 -7 -17 -4 -30 4 -16
-1 -30 -16 -45 -30 -30 -35 -19 -20 37 14 51 37 86 52 77 4 -3 7 -2 6 3 -5 16
76 103 86 93 6 -6 3 -18 -9 -32z m96 4 c-5 -10 -18 -25 -29 -35 -33 -30 -38 0
-7 33 29 30 52 31 36 2z m1829 17 c0 -33 -78 -237 -131 -342 -90 -181 -280
-457 -320 -465 -16 -3 -185 106 -301 194 -129 97 -271 227 -303 276 -20 32
-19 33 65 42 30 4 100 13 155 21 55 8 140 19 188 25 174 22 350 86 527 195
111 68 120 72 120 54z m1846 -44 c210 -131 389 -192 664 -225 47 -6 138 -18
203 -28 l118 -17 -91 -98 c-51 -53 -140 -135 -198 -180 -110 -86 -316 -227
-332 -227 -12 0 -79 78 -148 173 -122 169 -236 393 -283 556 -20 70 -23 91
-12 91 3 0 39 -20 79 -45z m1867 -3 c-2 -7 2 -11 9 -9 17 3 58 -62 58 -94 0
-42 -15 -43 -34 0 -10 21 -31 53 -47 72 -35 41 -36 47 -6 45 12 -1 21 -7 20
-14z m-65 -34 c7 -7 12 -21 12 -32 0 -16 2 -18 9 -7 7 11 12 9 22 -10 12 -23
11 -23 -6 -9 -10 8 -21 15 -24 15 -12 -1 -41 30 -41 42 0 16 12 17 28 1z
m-5592 -50 c-4 -26 -27 -58 -42 -58 -11 0 -12 4 -4 19 10 19 38 51 45 51 2 0
2 -6 1 -12z m494 -52 c25 -3 51 -7 58 -8 7 -1 11 -7 8 -14 -3 -8 3 -10 17 -7
19 4 20 3 5 -7 -10 -6 -29 -7 -45 -3 -37 10 -40 10 -60 12 -16 1 -16 3 -3 11
12 8 10 10 -10 11 -14 1 -31 1 -37 0 -7 -1 -13 2 -13 7 0 15 13 22 24 13 6 -5
31 -11 56 -15z m-476 -11 c-9 -14 -21 -25 -26 -25 -5 0 -2 7 6 16 9 8 16 20
16 25 0 5 5 9 10 9 6 0 3 -11 -6 -25z m4856 6 c0 -11 -98 -19 -112 -10 -14 9
14 15 70 17 23 1 42 -3 42 -7z m315 -10 c-7 -12 -54 -20 -57 -10 -2 5 -16 2
-32 -6 -32 -17 -66 -20 -66 -6 0 5 10 7 22 3 14 -3 19 -1 14 6 -5 8 -1 10 10
5 10 -4 15 -2 11 4 -4 6 10 10 35 11 23 1 43 4 46 7 8 7 23 -5 17 -14z m-610
-22 c75 -25 76 -44 2 -35 -60 8 -87 21 -87 41 0 20 8 19 85 -6z m-3455 1 c12
-7 9 -11 -11 -19 -23 -8 -81 -14 -118 -12 -34 2 8 22 52 24 26 1 47 5 47 10 0
10 12 9 30 -3z m-240 -20 c24 -16 -6 -30 -66 -30 -38 0 -55 5 -69 20 -18 20
-17 20 51 20 38 0 76 -5 84 -10z m3969 4 l32 -7 -28 -18 c-15 -11 -38 -19 -50
-19 -26 0 -73 20 -73 31 0 16 67 23 119 13z m-5004 -75 c-3 -10 -8 -26 -10
-37 -9 -47 -29 -102 -37 -102 -5 0 -7 -4 -3 -9 3 -5 1 -12 -4 -15 -13 -8 -24
49 -17 87 8 44 40 94 60 94 11 0 14 -6 11 -18z m80 -30 c-5 -44 -15 -67 -15
-33 0 11 -6 26 -12 33 -11 10 -9 11 6 5 15 -6 18 -4 13 8 -5 14 0 28 9 28 1 0
1 -19 -1 -41z m5857 27 c6 4 8 1 6 -7 -3 -8 -1 -23 5 -34 12 -24 18 -85 8 -85
-8 0 -11 16 -12 57 -1 13 -5 20 -10 17 -5 -3 -9 1 -10 8 0 7 -2 24 -4 38 -2
14 -1 19 1 12 3 -6 10 -9 16 -6z m-5925 -118 c-3 -8 -6 -5 -6 6 -1 11 2 17 5
13 3 -3 4 -12 1 -19z m71 -114 l2 -29 -20 24 c-25 29 -25 40 -2 37 11 -2 18
-13 20 -32z m-48 -15 c0 -12 -7 -19 -17 -18 -12 0 -13 2 -5 6 10 4 9 9 -5 20
-10 8 -12 11 -4 7 11 -5 13 -3 7 11 -5 15 -4 16 9 5 8 -7 15 -21 15 -31z m-71
-41 c9 -75 6 -131 -6 -135 -8 -3 -13 4 -13 15 0 10 -3 22 -7 25 -15 16 -14 89
1 106 9 10 13 21 9 26 -5 4 -3 6 2 2 6 -3 12 -20 14 -39z m1812 -126 c-11 -16
-28 -35 -38 -43 -9 -8 -2 5 17 29 38 48 52 57 21 14z m-1382 -47 c0 -5 -4 -3
-9 5 -5 8 -9 22 -9 30 0 16 17 -16 18 -35z m3801 20 c13 -14 21 -25 18 -25 -2
0 -15 11 -28 25 -13 14 -21 25 -18 25 2 0 15 -11 28 -25z m-1677 -12 c-10 -29
-59 -96 -92 -127 -56 -54 -34 -3 39 87 46 57 64 71 53 40z m-2439 -12 c3 -5
-1 -11 -9 -14 -9 -4 -12 -1 -8 9 6 16 10 17 17 5z m3436 -88 c21 -31 26 -41
12 -29 -21 18 -70 92 -54 82 4 -2 23 -26 42 -53z m-3091 2 c0 -5 -4 -3 -9 5
-5 8 -9 22 -9 30 0 16 17 -16 18 -35z m3842 28 c13 -16 12 -17 -3 -4 -10 7
-18 15 -18 17 0 8 8 3 21 -13z m89 -80 c0 -7 -23 9 -47 30 -13 11 -23 24 -23
28 0 4 16 -7 35 -24 19 -17 35 -32 35 -34z m-3892 -11 c67 -105 154 -172 272
-213 82 -28 264 -31 380 -5 90 19 108 20 57 2 -128 -46 -341 -55 -441 -18 -33
12 -78 34 -100 49 -60 39 -161 144 -185 192 -28 55 -21 52 17 -7z m5397 28 c3
-5 1 -10 -4 -10 -6 0 -11 5 -11 10 0 6 2 10 4 10 3 0 8 -4 11 -10z m-427 -92
c-81 -106 -261 -187 -414 -188 -75 0 -251 34 -321 62 -70 29 -62 33 13 7 129
-46 303 -62 425 -39 79 15 191 74 257 135 31 30 59 54 61 55 2 0 -8 -15 -21
-32z m-3146 -85 c-28 -39 -72 -79 -72 -65 0 7 4 12 9 12 4 0 20 18 35 40 14
22 31 40 37 40 6 0 1 -12 -9 -27z m1412 -19 c41 -41 41 -61 0 -23 -25 23 -49
59 -40 59 2 0 20 -16 40 -36z m224 -222 c2 -7 -2 -10 -12 -6 -9 3 -16 11 -16
16 0 13 23 5 28 -10z m-2077 -133 c-21 -20 -116 -42 -98 -23 11 11 111 52 116
47 3 -2 -6 -13 -18 -24z m2272 4 c-7 -2 -19 -2 -25 0 -7 3 -2 5 12 5 14 0 19
-2 13 -5z m278 -20 c-11 -5 -11 -7 0 -14 11 -7 10 -9 -3 -9 -10 0 -18 7 -18
15 0 8 8 15 18 14 12 0 13 -2 3 -6z m1111 -22 c-8 -4 -13 -11 -13 -15 1 -3 -1
-6 -4 -6 -3 0 -14 -9 -25 -20 -11 -11 -28 -20 -37 -20 -30 0 50 67 82 69 6 0
4 -3 -3 -8z m-1182 -41 c14 -10 23 -21 20 -23 -11 -10 -74 19 -88 40 -14 22
-14 23 14 13 16 -6 40 -19 54 -30z m-2650 14 c0 -13 -32 -35 -59 -40 -40 -8
-44 20 -5 33 32 11 64 14 64 7z m2948 -39 c11 -11 -5 -14 -41 -8 -20 3 -37 10
-37 14 0 9 68 4 78 -6z m-4008 -10 c0 -2 -9 -3 -19 -2 -11 0 -18 5 -15 9 4 6
34 0 34 -7z m56 -28 c4 -4 -4 -7 -19 -7 -14 0 -29 5 -32 10 -7 12 39 9 51 -3z
m197 -27 c7 0 3 -6 -7 -12 -15 -8 -21 -8 -24 0 -2 7 -9 9 -14 6 -7 -5 -8 -2
-4 5 5 7 15 10 23 7 8 -3 20 -6 26 -6z m3774 -302 c-3 -7 -5 -2 -5 12 0 14 2
19 5 13 2 -7 2 -19 0 -25z m-2372 12 c-3 -5 -10 -10 -16 -10 -5 0 -9 5 -9 10
0 6 7 10 16 10 8 0 12 -4 9 -10z m1365 0 c0 -5 -7 -10 -15 -10 -8 0 -15 -4
-15 -10 0 -5 -7 -7 -15 -4 -10 4 -15 0 -16 -12 0 -12 -3 -14 -6 -6 -4 10 -8 9
-19 -5 -7 -10 -14 -13 -14 -7 0 13 20 32 54 50 27 15 46 17 46 4z m-1400 -8
c0 -9 -61 -34 -68 -28 -4 5 48 35 61 36 4 0 7 -4 7 -8z m-943 -24 c-3 -8 -6
-5 -6 6 -1 11 2 17 5 13 3 -3 4 -12 1 -19z m1007 10 c-3 -4 -9 -8 -15 -8 -5 0
-9 4 -9 8 0 5 7 9 15 9 8 0 12 -4 9 -9z m1386 -8 c0 -5 -4 -10 -10 -10 -5 0
-10 5 -10 10 0 6 5 10 10 10 6 0 10 -4 10 -10z m-1231 -74 c-3 -3 -11 5 -18
17 -13 21 -12 21 5 5 10 -10 16 -20 13 -22z m1047 -8 l-16 -22 0 22 c0 13 4
20 10 17 6 -3 10 -1 10 6 0 7 3 10 6 6 3 -3 -1 -16 -10 -29z m1079 -216 c-10
-10 -16 -12 -13 -7 3 6 8 19 13 30 5 14 9 16 12 7 3 -8 -3 -21 -12 -30z"/>
<path d="M4911 8890 c0 -8 4 -22 9 -30 12 -18 12 -2 0 25 -6 13 -9 15 -9 5z"/>
<path d="M4931 8893 c-1 -17 16 -25 25 -12 4 7 3 9 -4 5 -5 -3 -13 0 -15 6 -4
9 -6 10 -6 1z"/>
<path d="M5430 8890 c0 -5 5 -10 11 -10 5 0 7 5 4 10 -3 6 -8 10 -11 10 -2 0
-4 -4 -4 -10z"/>
<path d="M4784 8876 c-3 -8 -4 -23 -2 -33 3 -11 6 -6 9 15 6 34 2 42 -7 18z"/>
<path d="M4976 8878 c3 -5 10 -6 15 -3 13 9 11 12 -6 12 -8 0 -12 -4 -9 -9z"/>
<path d="M5090 8886 c0 -2 9 -6 20 -9 11 -3 18 -1 14 4 -5 9 -34 13 -34 5z"/>
<path d="M5330 8876 c7 -7 13 -7 20 0 6 6 3 10 -10 10 -13 0 -16 -4 -10 -10z"/>
<path d="M5466 8868 c3 -5 10 -6 15 -3 13 9 11 12 -6 12 -8 0 -12 -4 -9 -9z"/>
<path d="M4531 8781 c-8 -6 -9 -11 -3 -15 6 -3 14 -1 17 5 9 14 2 20 -14 10z"/>
<path d="M4655 8780 c-3 -5 -1 -10 4 -10 6 0 11 5 11 10 0 6 -2 10 -4 10 -3 0
-8 -4 -11 -10z"/>
<path d="M4416 8745 c-9 -26 -7 -32 5 -12 6 10 9 21 6 23 -2 3 -7 -2 -11 -11z"/>
<path d="M4452 8725 c1 -18 5 -32 10 -29 4 3 4 12 1 20 -3 9 0 19 6 24 10 5 9
9 -3 13 -14 5 -16 0 -14 -28z"/>
<path d="M4371 8733 c-1 -17 16 -25 25 -12 4 7 3 9 -4 5 -5 -3 -13 0 -15 6 -4
9 -6 10 -6 1z"/>
<path d="M4327 8723 c7 -2 9 -12 6 -21 -6 -18 -5 -17 14 8 10 13 8 16 -10 17
-12 0 -17 -1 -10 -4z"/>
<path d="M6053 8665 c0 -8 4 -12 9 -9 5 3 6 10 3 15 -9 13 -12 11 -12 -6z"/>
<path d="M6150 8601 c0 -6 4 -13 10 -16 6 -3 7 1 4 9 -7 18 -14 21 -14 7z"/>
<path d="M4045 8591 c-3 -5 0 -13 6 -17 8 -5 9 -3 4 6 -6 10 -4 12 9 7 10 -4
15 -3 11 3 -8 13 -22 13 -30 1z"/>
<path d="M6256 8558 c3 -5 10 -6 15 -3 13 9 11 12 -6 12 -8 0 -12 -4 -9 -9z"/>
<path d="M3737 8335 c3 -8 9 -12 14 -9 12 7 11 11 -5 17 -10 4 -13 1 -9 -8z"/>
<path d="M3786 8325 c-11 -8 -17 -17 -14 -20 2 -3 13 4 23 15 21 23 18 25 -9
5z"/>
<path d="M6630 8240 c0 -5 5 -10 11 -10 5 0 7 5 4 10 -3 6 -8 10 -11 10 -2 0
-4 -4 -4 -10z"/>
<path d="M6667 8212 c3 -7 13 -16 22 -21 12 -7 16 -4 17 12 1 17 -4 22 -21 22
-14 0 -21 -5 -18 -13z"/>
<path d="M6646 8167 c3 -10 9 -15 12 -12 3 3 0 11 -7 18 -10 9 -11 8 -5 -6z"/>
<path d="M6693 8155 c0 -6 8 -11 18 -11 9 0 15 5 12 11 -2 7 -10 12 -17 12 -7
0 -13 -5 -13 -12z"/>
<path d="M6777 8095 c3 -8 9 -12 14 -9 12 7 11 11 -5 17 -10 4 -13 1 -9 -8z"/>
<path d="M6775 8059 c-4 -6 -5 -12 -2 -15 2 -3 7 2 10 11 7 17 1 20 -8 4z"/>
<path d="M3288 7935 c-3 -4 -3 -15 -1 -26 5 -19 6 -19 20 1 8 12 12 24 9 27
-3 4 -6 0 -6 -8 0 -11 -2 -11 -8 -1 -5 7 -11 10 -14 7z"/>
<path d="M3213 7825 c0 -8 4 -12 9 -9 5 3 6 10 3 15 -9 13 -12 11 -12 -6z"/>
<path d="M7013 7755 c0 -7 6 -11 14 -8 7 3 13 6 13 8 0 2 -6 5 -13 8 -8 3 -14
-1 -14 -8z"/>
<path d="M2780 7049 c0 -5 5 -7 10 -4 6 3 10 8 10 11 0 2 -4 4 -10 4 -5 0 -10
-5 -10 -11z"/>
<path d="M1435 7579 c-4 -6 -5 -12 -2 -15 2 -3 7 2 10 11 7 17 1 20 -8 4z"/>
<path d="M8470 7190 c0 -5 5 -10 10 -10 6 0 10 5 10 10 0 6 -4 10 -10 10 -5 0
-10 -4 -10 -10z"/>
<path d="M8251 6608 c-8 -23 1 -38 24 -38 6 0 4 4 -4 9 -8 5 -12 18 -8 30 7
28 -1 27 -12 -1z"/>
<path d="M8343 6623 c-7 -2 -13 -13 -13 -24 0 -17 3 -18 20 -9 11 6 20 17 20
25 0 15 -6 17 -27 8z"/>
<path d="M8280 6266 c0 -2 7 -7 16 -10 8 -3 12 -2 9 4 -6 10 -25 14 -25 6z"/>
<path d="M1665 6324 c-63 -33 -106 -97 -104 -156 l1 -33 9 31 c12 41 61 84
143 124 36 18 63 36 60 41 -9 14 -77 10 -109 -7z"/>
<path d="M2294 6410 c0 -16 3 -27 7 -24 4 2 9 -2 11 -8 3 -8 9 -5 16 9 10 19
9 20 -10 15 -17 -4 -20 -2 -15 11 3 9 3 19 -2 21 -4 3 -7 -8 -7 -24z"/>
</g>
</svg>
